<svg width="16" height="14" viewBox="0 0 16 14" fill="none" xmlns="http://www.w3.org/2000/svg">
<path fill-rule="evenodd" clip-rule="evenodd" d="M0.196289 4.77923C0.196289 2.37034 2.30961 0.515564 4.79018 0.515564C6.06887 0.515564 7.19403 1.11512 8.00145 1.89091C8.80887 1.11512 9.93403 0.515564 11.2127 0.515564C13.6933 0.515564 15.8066 2.37034 15.8066 4.77923C15.8066 6.42935 15.1029 7.88046 14.128 9.10707C13.1548 10.3316 11.8817 11.3708 10.6628 12.2153C10.1972 12.5378 9.72618 12.8353 9.29512 13.0549C8.89035 13.261 8.42493 13.4498 8.00145 13.4498C7.57797 13.4498 7.11255 13.261 6.70778 13.0549C6.27671 12.8353 5.80571 12.5378 5.34014 12.2153C4.12121 11.3708 2.84815 10.3316 1.87491 9.10707C0.899985 7.88046 0.196289 6.42935 0.196289 4.77923ZM4.79018 1.85359C2.93546 1.85359 1.53432 3.21758 1.53432 4.77923C1.53432 6.03117 2.06577 7.19678 2.92238 8.27453C3.78067 9.35441 4.93551 10.3072 6.10211 11.1154C6.54355 11.4212 6.95934 11.6814 7.315 11.8625C7.69696 12.0571 7.91819 12.1118 8.00145 12.1118C8.08471 12.1118 8.30594 12.0571 8.6879 11.8625C9.04356 11.6814 9.45935 11.4212 9.90079 11.1154C11.0674 10.3072 12.2222 9.35441 13.0805 8.27453C13.9371 7.19678 14.4686 6.03117 14.4686 4.77923C14.4686 3.21758 13.0674 1.85359 11.2127 1.85359C10.1475 1.85359 9.15286 2.48998 8.53181 3.2977C8.40518 3.4624 8.20921 3.55892 8.00145 3.55892C7.79369 3.55892 7.59772 3.4624 7.47109 3.2977C6.85004 2.48998 5.85539 1.85359 4.79018 1.85359Z" fill="#323142"/>
</svg>
