<svg width="19" height="19" viewBox="0 0 19 19" fill="none" xmlns="http://www.w3.org/2000/svg">
<path d="M13.3507 15.4667H5.90402C3.67001 15.4667 2.18066 14.3497 2.18066 11.7434V6.53068C2.18066 3.92433 3.67001 2.80733 5.90402 2.80733H13.3507C15.5847 2.80733 17.0741 3.92433 17.0741 6.53068V11.7434C17.0741 14.3497 15.5847 15.4667 13.3507 15.4667Z" stroke="#22C55E" stroke-width="1.11701" stroke-miterlimit="10" stroke-linecap="round" stroke-linejoin="round"/>
<path d="M9.62757 11.3711C10.8614 11.3711 11.8616 10.3709 11.8616 9.13704C11.8616 7.90323 10.8614 6.90303 9.62757 6.90303C8.39376 6.90303 7.39355 7.90323 7.39355 9.13704C7.39355 10.3709 8.39376 11.3711 9.62757 11.3711Z" stroke="#22C55E" stroke-width="1.11701" stroke-miterlimit="10" stroke-linecap="round" stroke-linejoin="round"/>
<path d="M4.78711 7.27536V10.9987" stroke="#22C55E" stroke-width="1.11701" stroke-miterlimit="10" stroke-linecap="round" stroke-linejoin="round"/>
<path d="M14.4678 7.27536V10.9987" stroke="#22C55E" stroke-width="1.11701" stroke-miterlimit="10" stroke-linecap="round" stroke-linejoin="round"/>
</svg>
