<svg width="12" height="11" viewBox="0 0 12 11" fill="none" xmlns="http://www.w3.org/2000/svg">
<mask id="path-1-inside-1_1_11012" fill="white">
<path d="M11.3121 6.43131H6.8034V11.0035H5.00415V6.43131H0.516602V4.8014H5.00415V0.208008H6.8034V4.8014H11.3121V6.43131Z"/>
</mask>
<path d="M11.3121 6.43131H6.8034V11.0035H5.00415V6.43131H0.516602V4.8014H5.00415V0.208008H6.8034V4.8014H11.3121V6.43131Z" fill="black"/>
<path d="M11.3121 6.43131V9.3533H14.2341V6.43131H11.3121ZM6.8034 6.43131V3.50932H3.88141V6.43131H6.8034ZM6.8034 11.0035V13.9255H9.72539V11.0035H6.8034ZM5.00415 11.0035H2.08216V13.9255H5.00415V11.0035ZM5.00415 6.43131H7.92614V3.50932H5.00415V6.43131ZM0.516602 6.43131H-2.40539V9.3533H0.516602V6.43131ZM0.516602 4.8014V1.8794H-2.40539V4.8014H0.516602ZM5.00415 4.8014V7.72339H7.92614V4.8014H5.00415ZM5.00415 0.208008V-2.71398H2.08216V0.208008H5.00415ZM6.8034 0.208008H9.72539V-2.71398H6.8034V0.208008ZM6.8034 4.8014H3.88141V7.72339H6.8034V4.8014ZM11.3121 4.8014H14.2341V1.8794H11.3121V4.8014ZM11.3121 3.50932H6.8034V9.3533H11.3121V3.50932ZM3.88141 6.43131V11.0035H9.72539V6.43131H3.88141ZM6.8034 8.08154H5.00415V13.9255H6.8034V8.08154ZM7.92614 11.0035V6.43131H2.08216V11.0035H7.92614ZM5.00415 3.50932H0.516602V9.3533H5.00415V3.50932ZM3.43859 6.43131V4.8014H-2.40539V6.43131H3.43859ZM0.516602 7.72339H5.00415V1.8794H0.516602V7.72339ZM7.92614 4.8014V0.208008H2.08216V4.8014H7.92614ZM5.00415 3.13H6.8034V-2.71398H5.00415V3.13ZM3.88141 0.208008V4.8014H9.72539V0.208008H3.88141ZM6.8034 7.72339H11.3121V1.8794H6.8034V7.72339ZM8.39013 4.8014V6.43131H14.2341V4.8014H8.39013Z" fill="white" mask="url(#path-1-inside-1_1_11012)"/>
</svg>
