<svg width="13" height="12" viewBox="0 0 13 12" fill="none" xmlns="http://www.w3.org/2000/svg">
<path d="M5.67815 0.791547C5.90663 0.0883642 6.90145 0.0883646 7.12993 0.791548L7.94627 3.30399C8.04845 3.61846 8.3415 3.83137 8.67215 3.83137H11.3139C12.0533 3.83137 12.3607 4.7775 11.7625 5.21209L9.6253 6.76486C9.3578 6.95922 9.24586 7.30372 9.34804 7.61819L10.1644 10.1306C10.3929 10.8338 9.58803 11.4186 8.98987 10.984L6.85266 9.43119C6.58516 9.23683 6.22293 9.23683 5.95542 9.43119L3.81821 10.984C3.22005 11.4186 2.41523 10.8338 2.6437 10.1306L3.46004 7.61819C3.56222 7.30372 3.45029 6.95922 3.18278 6.76486L1.04557 5.21209C0.447412 4.7775 0.754827 3.83137 1.4942 3.83137H4.13593C4.46659 3.83137 4.75964 3.61846 4.86181 3.30399L5.67815 0.791547Z" fill="#F59E0B"/>
</svg>
