<svg width="19" height="19" viewBox="0 0 19 19" fill="none" xmlns="http://www.w3.org/2000/svg">
<path d="M10.1187 2.27753L10.0964 2.32966L7.93685 7.3413H5.81453C5.30816 7.3413 4.82412 7.44555 4.38477 7.63172L5.68794 4.51899L5.71773 4.44453L5.76985 4.32538C5.78475 4.2807 5.79964 4.23602 5.82198 4.19878C6.7975 1.94243 7.89961 1.42861 10.1187 2.27753Z" stroke="#936DFF" stroke-width="1.11701" stroke-linecap="round" stroke-linejoin="round"/>
<path d="M14.1322 7.49023C13.7971 7.38598 13.4396 7.3413 13.0822 7.3413H7.93652L10.0961 2.32966L10.1184 2.27753C10.2301 2.31477 10.3344 2.3669 10.4461 2.41158L12.0918 3.10412C13.0077 3.4839 13.6481 3.87858 14.0354 4.35517C14.1098 4.44453 14.1694 4.52644 14.2215 4.62325C14.2886 4.7275 14.3407 4.83176 14.3705 4.94346C14.4003 5.01048 14.4226 5.0775 14.4375 5.13707C14.6386 5.76259 14.5194 6.52961 14.1322 7.49023Z" stroke="#936DFF" stroke-width="1.11701" stroke-linecap="round" stroke-linejoin="round"/>
<path d="M16.718 10.9755V12.4276C16.718 12.5765 16.7105 12.7254 16.7031 12.8744C16.5616 15.4733 15.1095 16.7839 12.3542 16.7839H6.54578C6.36706 16.7839 6.18834 16.769 6.01706 16.7467C3.64901 16.5903 2.38307 15.3243 2.22669 12.9563C2.20435 12.785 2.18945 12.6063 2.18945 12.4276V10.9755C2.18945 9.47867 3.09795 8.19039 4.39368 7.63189C4.84048 7.44572 5.31707 7.34147 5.82345 7.34147H13.0914C13.4563 7.34147 13.8138 7.3936 14.1414 7.4904C15.6233 7.94465 16.718 9.32974 16.718 10.9755Z" stroke="#936DFF" stroke-width="1.11701" stroke-linecap="round" stroke-linejoin="round"/>
<path d="M5.68806 4.519L4.38489 7.63172C3.08916 8.19023 2.18066 9.47851 2.18066 10.9753V8.79341C2.18066 6.67854 3.6849 4.91367 5.68806 4.519Z" stroke="#936DFF" stroke-width="1.11701" stroke-linecap="round" stroke-linejoin="round"/>
<path d="M16.7152 8.79305V10.9749C16.7152 9.33666 15.628 7.94412 14.1387 7.49732C14.5259 6.52925 14.6376 5.76968 14.4514 5.13671C14.4365 5.06969 14.4142 5.00267 14.3844 4.9431C15.7695 5.65798 16.7152 7.12499 16.7152 8.79305Z" stroke="#936DFF" stroke-width="1.11701" stroke-linecap="round" stroke-linejoin="round"/>
</svg>
